<svg height="654" width="720" xmlns="http://www.w3.org/2000/svg">
<rect height="654" fill="#555" width="720"></rect>
<text fill="#7f7" font-family="Courier New" font-size="12" xml:space="preserve">
<tspan x="10" y="26">3 megabytes installed</tspan>
<tspan x="10" y="42"></tspan>
<tspan x="10" y="58">node_modules</tspan>
<tspan x="10" y="74">└─┬ gulp-base64@0.1.3 </tspan>
<tspan x="10" y="90">  ├── async@0.2.10 </tspan>
<tspan x="10" y="106">  ├── buffers@0.1.1 </tspan>
<tspan x="10" y="122">  ├── extend@1.2.1 </tspan>
<tspan x="10" y="138">  ├── mime@1.2.11 </tspan>
<tspan x="10" y="154">  ├─┬ request@2.33.0 </tspan>
<tspan x="10" y="170">  │ ├── aws-sign2@0.5.0 </tspan>
<tspan x="10" y="186">  │ ├── forever-agent@0.5.2 </tspan>
<tspan x="10" y="202">  │ ├─┬ form-data@0.1.4 </tspan>
<tspan x="10" y="218">  │ │ ├── async@0.9.2 </tspan>
<tspan x="10" y="234">  │ │ └─┬ combined-stream@0.0.7 </tspan>
<tspan x="10" y="250">  │ │   └── delayed-stream@0.0.5 </tspan>
<tspan x="10" y="266">  │ ├─┬ hawk@1.0.0 </tspan>
<tspan x="10" y="282">  │ │ ├── boom@0.4.2 </tspan>
<tspan x="10" y="298">  │ │ ├── cryptiles@0.2.2 </tspan>
<tspan x="10" y="314">  │ │ ├── hoek@0.9.1 </tspan>
<tspan x="10" y="330">  │ │ └── sntp@0.2.4 </tspan>
<tspan x="10" y="346">  │ ├─┬ http-signature@0.10.1 </tspan>
<tspan x="10" y="362">  │ │ ├── asn1@0.1.11 </tspan>
<tspan x="10" y="378">  │ │ ├── assert-plus@0.1.5 </tspan>
<tspan x="10" y="394">  │ │ └── ctype@0.5.3 </tspan>
<tspan x="10" y="410">  │ ├── json-stringify-safe@5.0.1 </tspan>
<tspan x="10" y="426">  │ ├── node-uuid@1.4.8 </tspan>
<tspan x="10" y="442">  │ ├── oauth-sign@0.3.0 </tspan>
<tspan x="10" y="458">  │ ├── qs@0.6.6 </tspan>
<tspan x="10" y="474">  │ ├─┬ tough-cookie@2.3.2 </tspan>
<tspan x="10" y="490">  │ │ └── punycode@1.4.1 </tspan>
<tspan x="10" y="506">  │ └── tunnel-agent@0.3.0 </tspan>
<tspan x="10" y="522">  └─┬ through2@0.4.2 </tspan>
<tspan x="10" y="538">    ├─┬ readable-stream@1.0.34 </tspan>
<tspan x="10" y="554">    │ ├── core-util-is@1.0.2 </tspan>
<tspan x="10" y="570">    │ ├── inherits@2.0.3 </tspan>
<tspan x="10" y="586">    │ ├── isarray@0.0.1 </tspan>
<tspan x="10" y="602">    │ └── string_decoder@0.10.31 </tspan>
<tspan x="10" y="618">    └─┬ xtend@2.1.2 </tspan>
<tspan x="10" y="634">      └── object-keys@0.4.0</tspan>
</text>
</svg>
